<?xml version="1.0" encoding="utf-8"?>
<!-- Generator: Adobe Illustrator 18.1.1, SVG Export Plug-In . SVG Version: 6.00 Build 0)  -->
<svg version="1.1" id="Layer_1" xmlns="http://www.w3.org/2000/svg" xmlns:xlink="http://www.w3.org/1999/xlink" x="0px" y="0px"
	 viewBox="-269 251 100 100" enable-background="new -269 251 100 100" xml:space="preserve">
<g>
	<path fill="#FFFFFF" d="M-233.4,254.4l1.5,0.1c0.1,0,0.3,0.1,0.4,0.2c0.1,0.1,0.2,0.2,0.2,0.3l2.9,10.7l5.4-9.8
		c0.1-0.1,0.1-0.2,0.2-0.3c0.1-0.1,0.2-0.1,0.3-0.1l1.7,0.2l0.3,0.1c0.1,0,0.1,0.1,0.2,0.2c0.1,0.1,0.1,0.2,0.1,0.2
		c0,0.1,0,0.2,0,0.3c-0.3,1.5-0.5,3-0.7,4.5c-0.3,2.3-0.7,4.7-1.2,7c-0.4,1.6-0.8,3.2-1.3,4.7c-0.4,1.5-0.9,2.9-1.3,4.3
		c0.5,1.1,1.7,5.9,5.6,28.2c2.4,7.3,11,29.9,27.3,34.8c0.5,0.2,1,0.5,1.4,1c0.3,0.5,0.5,1,0.6,1.6c0,0.1,0,0.3-0.1,0.4
		c-0.1,0.1-0.2,0.2-0.3,0.2l-1.9,0.7c-0.1,0.1-0.2,0.2-0.2,0.3c-0.1,0.2-0.3,0.3-0.4,0.5c-1.2,1.1-2.8,1.6-4.4,1.6h-1
		c-0.6,0-1.2,0-1.8-0.1c-0.4,0-0.7-0.1-1.1-0.1c-0.5,0-1,0.1-1.5,0.4c-0.1,0.1-0.3,0.2-0.4,0.3c-0.2,0.2-0.4,0.3-0.6,0.4
		c-0.7,0.3-1.5,0.4-2.2,0.4c-0.8,0-1.6-0.1-2.3-0.4c-0.4-0.2-0.8-0.4-1.1-0.7c-0.3-0.3-0.6-0.7-0.7-1.1c0-0.1,0-0.2,0-0.4l-0.7-0.1
		c-0.6-0.1-1.1-0.2-1.6-0.3c-0.9-0.2-1.8-0.6-2.5-1.1h-1.3c-1.4,0-2.9-0.2-4.3-0.4l-1-0.2c-0.5-0.1-1-0.1-1.5-0.1
		c-1.2,0-2.5,0.2-3.7,0.4c-1,0.2-2,0.3-3,0.4c-0.7,0-1.4-0.1-2.1-0.4c-1.4-0.6-2.8-0.9-4.3-0.9c-1.4,0-2.9,0.3-4.2,0.8
		c-0.4,0.1-0.8,0.2-1.2,0.3c-0.5,0.1-1.1,0.2-1.6,0.2c-0.7,0-1.4-0.2-2-0.5c-0.6-0.3-1.2-0.7-1.6-1.3c-0.4-0.4-0.8-0.8-1.3-1.1
		c-0.1,0-0.2-0.1-0.2-0.2c-0.1-0.1-0.1-0.2-0.1-0.2c0-0.1,0-0.2,0-0.3c0-0.1,0-0.2,0-0.3c1.1-2.1,3.9-17.4,4-27.3
		c0.1-7.6,0.9-15.2,2.4-22.7c1.6-7.3,3.7-11.9,6.4-13.8c0.1-1.6,0-3.2,0-4.8s-0.1-3.3,0-5c0.1-1.7,0.4-3.8,0.7-5.6
		c0.3-1.8,0.5-3.7,0.7-5.5c0-0.1,0-0.2,0.1-0.3c0-0.1,0.1-0.2,0.2-0.2C-233.8,254.4-233.6,254.4-233.4,254.4L-233.4,254.4z
		 M-233.5,252.2c-0.5,0-1,0.2-1.5,0.4c-0.4,0.3-0.8,0.7-1,1.2c-0.2,0.3-0.3,0.7-0.3,1.1c-0.1,1.7-0.4,3.6-0.6,5.4s-0.6,3.8-0.7,5.8
		c-0.1,1.7-0.1,3.5,0,5.2c0,1.1,0.1,2.4,0,3.6c-2.7,2.5-4.8,7.2-6.4,14.4c-1.5,7.6-2.3,15.3-2.4,23.1c-0.1,9.7-2.8,24.4-3.7,26.2
		c-0.2,0.3-0.3,0.7-0.3,1.1c0,0.4,0,0.8,0.1,1.1c0.1,0.4,0.3,0.7,0.6,1c0.3,0.3,0.6,0.5,0.9,0.7c0.3,0.2,0.5,0.4,0.8,0.7
		c0.6,0.8,1.4,1.4,2.4,1.8c0.9,0.4,1.9,0.7,2.9,0.7c0.7,0,1.5-0.1,2.2-0.3c0.4-0.1,0.8-0.2,1.3-0.4c1.2-0.4,2.4-0.6,3.6-0.7
		c1.2,0,2.4,0.3,3.5,0.7c0.9,0.4,1.9,0.5,2.9,0.5c1.1,0,2.3-0.2,3.4-0.4c1.1-0.2,2.2-0.3,3.3-0.4c0.4,0,0.7,0,1.1,0.1
		c0.3,0,0.6,0.1,0.8,0.1c1.5,0.3,3.1,0.4,4.7,0.5h0.6c0.8,0.5,1.7,0.9,2.6,1.1l1.1,0.2c0.6,1,1.5,1.8,2.6,2.2c1,0.5,2.2,0.7,3.3,0.7
		c1.1,0,2.1-0.2,3.1-0.6c0.4-0.2,0.8-0.4,1.2-0.7c0.1-0.1,0.3-0.1,0.4-0.1h0.9c0.5,0,1.3,0.1,2.1,0.1h1.2c1.1,0,2.2-0.2,3.2-0.6
		c1-0.4,1.9-1,2.7-1.8c0.1-0.2,0.3-0.3,0.4-0.5l1.3-0.5c0.5-0.2,1-0.6,1.3-1.1s0.5-1.1,0.5-1.6c0-1.1-0.4-2.1-1-2.9
		c-0.6-0.9-1.5-1.5-2.5-1.8c-15.3-4.5-23.5-26.3-25.8-33.2c-3.5-19.8-4.7-25.7-5.5-27.8c0.3-1.3,0.7-2.4,1-3.5
		c0.5-1.6,1-3.2,1.4-4.9c0.5-2.4,0.9-4.7,1.3-7.1c0.2-1.5,0.4-3,0.7-4.5c0.1-0.4,0.1-0.8,0-1.2c-0.1-0.4-0.3-0.8-0.5-1.1
		c-0.2-0.3-0.6-0.6-0.9-0.8c-0.3-0.2-0.7-0.3-1.1-0.4l-1.7-0.2h-0.3c-0.5,0-1,0.1-1.5,0.4c-0.4,0.3-0.8,0.6-1.1,1.1l-2.8,5l-1.5-5.3
		c-0.2-0.6-0.5-1.1-0.9-1.5c-0.5-0.4-1-0.6-1.6-0.7l-1.4-0.1H-233.5z"/>
	<path fill="#FFFFFF" d="M-233.4,255.1l1.5,0.1l3.3,12.3l6.2-11.3l1.7,0.2c-0.7,3.8-1.1,7.7-1.9,11.4c-0.7,3.1-1.9,6.1-2.5,9.2
		c-3,1.5-6,1.5-9.4-0.9c0.2-3.3-0.2-6.6,0-9.9C-234.5,262.5-233.7,258.7-233.4,255.1z"/>
	<path fill="#222222" d="M-229.3,279.1c-2.2-0.1-4.3-0.8-6.1-2.1c-0.2-0.1-0.3-0.3-0.4-0.4c-0.1-0.2-0.1-0.4-0.1-0.6
		c0.1-1.6,0-3.2,0-4.8c0-1.6-0.1-3.4,0-5.1c0.1-2,0.4-4,0.7-5.9c0.3-1.7,0.5-3.5,0.6-5.2c0-0.1,0-0.3,0.1-0.4
		c0.1-0.1,0.2-0.2,0.3-0.3c0.1-0.1,0.2-0.2,0.4-0.2s0.3-0.1,0.4-0.1l1.5,0.1c0.2,0,0.4,0.1,0.6,0.3c0.2,0.1,0.3,0.3,0.4,0.6l2.5,9.6
		l4.9-8.9c0.1-0.2,0.3-0.3,0.5-0.4c0.2-0.1,0.4-0.1,0.6-0.1l1.7,0.2c0.2,0,0.3,0.1,0.4,0.1c0.1,0.1,0.3,0.2,0.3,0.3
		c0.2,0.3,0.3,0.6,0.2,0.9c-0.3,1.5-0.5,3.1-0.7,4.6c-0.3,2.3-0.7,4.6-1.2,6.9c-0.3,1.6-0.8,3.1-1.3,4.5c-0.5,1.5-0.9,3.1-1.3,4.7
		c0,0.2-0.1,0.3-0.2,0.5c-0.1,0.1-0.2,0.2-0.4,0.3C-226.2,278.7-227.7,279.1-229.3,279.1z M-233.6,275.6c1,0.8,2.3,1.2,3.6,1.3
		c1.3,0.1,2.6-0.1,3.8-0.7c0.3-1.5,0.8-2.9,1.3-4.4c0.5-1.4,0.9-2.9,1.3-4.3c0.5-2.2,0.8-4.5,1.2-6.7l0.4-2.7l-5.6,9.9
		c-0.1,0.2-0.3,0.4-0.5,0.5c-0.2,0.1-0.4,0.1-0.6,0.1c-0.2,0-0.4-0.1-0.6-0.3c-0.2-0.1-0.3-0.3-0.4-0.6l-2.8-10.4
		c-0.1,1.1-0.3,2.1-0.4,3.2c-0.3,1.9-0.6,3.8-0.6,5.7c-0.1,1.7,0,3.3,0,4.9C-233.6,272.8-233.5,274.1-233.6,275.6z"/>
	<path fill="#FFFFFF" d="M-219.7,305c8.9,28,23.4,34.2,27.8,35.5c0.4,0.1,0.8,0.4,1,0.7c0.3,0.3,0.4,0.8,0.4,1.2l-2.1,0.8
		c-0.4,0.4-0.4,0.6-0.7,0.9c-1.1,0.9-2.5,1.4-4,1.3c-2.9,0.2-3.9-0.6-5.6,0.3c-0.6,0.3-0.5,0.4-1,0.6c-2,0.9-5,0.1-5.5-1.5
		c0-0.1,0.7-0.3,0.7-0.5c-1.2-0.3-2.4-0.6-3.5-0.7c-0.9-0.2-1.8-0.6-2.5-1.3"/>
	<path fill="#222222" d="M-205.8,348c-0.9,0-1.7-0.2-2.5-0.5c-0.5-0.2-0.9-0.5-1.2-0.8c-0.4-0.4-0.6-0.8-0.8-1.3c0,0,0-0.1,0-0.1
		l-0.4-0.1l-1.6-0.3c-1.1-0.2-2.2-0.8-3.1-1.5c-0.2-0.2-0.3-0.5-0.3-0.8c0-0.3,0.1-0.6,0.3-0.8c0.2-0.2,0.5-0.3,0.7-0.4
		c0.3,0,0.6,0.1,0.8,0.2c0.6,0.5,1.3,0.9,2,1c0.4,0.1,1,0.2,1.5,0.3c2.3,0.4,2.8,0.5,2.9,1.4c0,0.3,0,0.6-0.2,0.8
		c0.1,0.1,0.2,0.1,0.3,0.2c1,0.4,2.1,0.4,3.1,0c0.1,0,0.2-0.1,0.2-0.1c0.2-0.2,0.5-0.4,0.7-0.5c1.1-0.5,2.3-0.7,3.5-0.5
		c0.8,0.1,1.7,0.1,2.5,0c0.1,0,0.1,0,0.2,0c1.2,0.1,2.3-0.3,3.2-1.1c0-0.1,0.1-0.1,0.1-0.2c0.2-0.3,0.4-0.5,0.6-0.7
		c0.1-0.1,0.2-0.2,0.4-0.2l1.1-0.4c-0.1-0.1-0.3-0.1-0.4-0.1c-17.4-5.1-26.3-29-28.6-36.2c0-0.1-0.1-0.3-0.1-0.4
		c0-0.1,0.1-0.3,0.1-0.4c0.1-0.1,0.2-0.2,0.3-0.3c0.1-0.1,0.2-0.2,0.4-0.2c0.1,0,0.3-0.1,0.4-0.1c0.1,0,0.3,0.1,0.4,0.1
		c0.1,0.1,0.2,0.2,0.3,0.3c0.1,0.1,0.2,0.2,0.2,0.4c8.8,27.4,23,33.6,27.1,34.8c0.6,0.2,1.2,0.6,1.6,1.1c0.4,0.5,0.6,1.2,0.6,1.9
		c0,0.2-0.1,0.4-0.2,0.6c-0.1,0.2-0.3,0.3-0.5,0.4l-1.8,0.6l-0.1,0.2c-0.1,0.2-0.3,0.4-0.4,0.6c-1.3,1.2-3,1.8-4.8,1.8
		c-1,0.1-1.9,0-2.9-0.1c-0.8-0.2-1.6-0.1-2.3,0.2c-0.1,0.1-0.2,0.1-0.3,0.2c-0.2,0.2-0.5,0.3-0.7,0.5
		C-204.2,347.9-205,348-205.8,348z"/>
	<path fill="#FFFFFF" d="M-208,339.9c-0.8,1-1.9,1.8-3.2,2c-4.3,1.5-8.1,0.5-10,0.2c-4.1-0.5-7.4,1.4-10.1,0.3
		c-4.8-1.9-7.7-0.4-10.2,0.2c-3.7,0.9-4.2-1.7-6.2-2.6c1.3-2.5,4-17.9,4.1-27.6c0.2-14.7,3-33.2,9.1-36.3c0.8,0.3,1.6,0.4,2.4,0.6
		c2.2,0.4,4.5,0.5,6.7,0.3c1,1,5.5,27,7.2,36.9C-217.2,319.7-213.9,329.5-208,339.9"/>
	<path fill="#222222" d="M-242.8,344c-0.8,0-1.5-0.2-2.2-0.5c-0.7-0.3-1.3-0.8-1.8-1.4c-0.4-0.4-0.8-0.7-1.3-1
		c-0.1-0.1-0.2-0.2-0.3-0.3c-0.1-0.1-0.2-0.2-0.2-0.4c0-0.1-0.1-0.3,0-0.4c0-0.1,0.1-0.3,0.1-0.4c1.1-2.1,3.8-17.2,3.9-27.1
		c0.1-12.1,2.3-33.5,9.7-37.3c0.3-0.1,0.6-0.2,0.8-0.1c0.7,0.2,1.5,0.4,2.3,0.5c2.1,0.4,4.2,0.5,6.4,0.3c0.2,0,0.3,0,0.5,0.1
		c0.2,0.1,0.3,0.1,0.4,0.3c0.5,0.5,1.3,1.3,7.5,37.4c0.9,5.4,4,15,9.9,25.6c0.1,0.2,0.2,0.4,0.2,0.6c0,0.1,0,0.3-0.1,0.4
		c-0.1,0.1-0.1,0.3-0.2,0.4c-0.9,1.2-2.2,2-3.7,2.3c-3.1,0.9-6.4,1.1-9.5,0.4l-0.9-0.1c-1.7-0.1-3.3,0-4.9,0.3
		c-1.8,0.5-3.6,0.5-5.4,0c-2.6-1.1-5.6-1.1-8.2-0.1l-1.2,0.3C-241.7,343.9-242.3,344-242.8,344z M-246.2,339.6
		c0.4,0.3,0.7,0.6,1,0.9c0.4,0.6,1,1,1.6,1.2c0.6,0.2,1.3,0.2,2,0l1.1-0.3c3.1-1.2,6.6-1.1,9.7,0.2c1.4,0.3,2.8,0.3,4.2-0.1
		c1.8-0.4,3.7-0.5,5.6-0.3l1,0.2c2.8,0.6,5.8,0.5,8.5-0.3h0.1c0.8-0.2,1.5-0.5,2-1.1c-5.8-10.6-8.9-20.2-9.8-25.7
		c-4.6-26.8-6.2-34-6.8-35.9c-2.1,0.1-4.1,0-6.2-0.4c-0.7-0.1-1.4-0.3-2.1-0.5c-5.1,3.3-7.9,20.3-8.1,35.1
		C-242.5,321.1-244.7,335.2-246.2,339.6z"/>
	<path fill="#222222" d="M-241.5,331.7c-0.1,0-0.2,0-0.3,0c-0.1,0-0.3-0.1-0.4-0.2c-0.1-0.1-0.2-0.2-0.3-0.3
		c-0.1-0.1-0.1-0.3-0.1-0.4c0-0.1,0-0.3,0.1-0.4c0.9-2.9,1.6-6,2-9c0.4-3,0.5-6,0.3-9c-0.1-2.3-0.1-5,0.1-8.4
		c0.2-3.5,0.6-7,1.3-10.5c0.1-0.3,0.2-0.5,0.5-0.7c0.2-0.2,0.5-0.2,0.8-0.2c0.3,0.1,0.5,0.2,0.7,0.5c0.2,0.2,0.2,0.5,0.2,0.8
		c-0.6,3.4-1.1,6.8-1.3,10.2c-0.2,3.4-0.1,5.8-0.1,8.2c0.2,3.1,0.1,6.3-0.3,9.4c-0.4,3.2-1.1,6.4-2.1,9.4c-0.1,0.2-0.2,0.4-0.4,0.5
		C-241.1,331.7-241.3,331.7-241.5,331.7z"/>
	<path fill="#222222" d="M-198.8,342.3c-0.2,0-0.3,0-0.5-0.1c-2.3-1.1-4.4-2.5-6.3-4.1c-1.4-1.3-9.9-10-12.3-18.3
		c0-0.1-0.1-0.3,0-0.4c0-0.1,0.1-0.3,0.1-0.4c0.1-0.1,0.2-0.2,0.3-0.3c0.1-0.1,0.2-0.2,0.4-0.2c0.1,0,0.3-0.1,0.4,0
		c0.1,0,0.3,0.1,0.4,0.1c0.1,0.1,0.2,0.2,0.3,0.3c0.1,0.1,0.2,0.2,0.2,0.4c2.2,7.8,10.5,16.3,11.6,17.3c1.7,1.5,3.7,2.8,5.8,3.8
		c0.2,0.1,0.4,0.3,0.5,0.5c0.1,0.2,0.1,0.5,0.1,0.7c-0.1,0.2-0.2,0.5-0.4,0.6C-198.3,342.2-198.6,342.3-198.8,342.3L-198.8,342.3z"
		/>
	<path fill="#222222" d="M-238.9,336.6c-0.2,0-0.3,0-0.4-0.1c-0.1-0.1-0.3-0.1-0.4-0.2c-0.1-0.1-0.2-0.2-0.2-0.4
		c-0.1-0.1-0.1-0.3-0.1-0.4c0-0.1,0-0.3,0.1-0.4c0.9-2.1,1.7-4.3,2.2-6.6c0.3-1.2,0.6-2.5,0.7-3.7c0-0.3,0.2-0.6,0.4-0.7
		c0.2-0.2,0.5-0.3,0.8-0.2c0.1,0,0.3,0.1,0.4,0.1c0.1,0.1,0.2,0.2,0.3,0.3c0.1,0.1,0.1,0.3,0.2,0.4c0,0.1,0,0.3,0,0.4
		c-0.2,1.3-0.5,2.6-0.8,3.9c-0.6,2.4-1.4,4.7-2.4,6.9c-0.1,0.2-0.2,0.4-0.4,0.5C-238.5,336.5-238.7,336.6-238.9,336.6z"/>
	<path fill="#222222" d="M-237.1,289.8L-237.1,289.8c-0.2,0-0.4-0.1-0.5-0.1s-0.2-0.2-0.3-0.3c-0.1-0.1-0.2-0.2-0.2-0.4
		c0-0.1-0.1-0.3,0-0.4c0.4-4.6,2.3-9,5.4-12.5c0.1-0.1,0.2-0.2,0.3-0.3c0.1-0.1,0.3-0.1,0.4-0.1c0.2,0,0.3,0,0.4,0.1
		c0.1,0,0.3,0.1,0.4,0.2c0.1,0.1,0.2,0.2,0.3,0.4c0.1,0.1,0.1,0.3,0.1,0.4c0,0.2,0,0.3-0.1,0.4c-0.1,0.1-0.1,0.3-0.2,0.4
		c-2.8,3.1-4.5,7.1-4.8,11.2c0,0.3-0.2,0.5-0.4,0.7C-236.5,289.6-236.8,289.7-237.1,289.8z"/>
</g>
</svg>
